<?xml version="1.0" encoding="UTF-8"?>
<svg version="1.1" xmlns="http://www.w3.org/2000/svg" width="384" height="378">
<path d="M0 0 C0.96832764 0.00080566 1.93665527 0.00161133 2.93432617 0.00244141 C10.83220597 0.06914537 18.85432155 0.31534871 26.5625 2.1875 C26.8925 2.8475 27.2225 3.5075 27.5625 4.1875 C22.1175 3.6925 22.1175 3.6925 16.5625 3.1875 C16.5625 3.8475 16.5625 4.5075 16.5625 5.1875 C17.43648437 5.15269531 18.31046875 5.11789063 19.2109375 5.08203125 C53.05742948 4.33698268 90.26712694 18.25208928 115.1484375 41.09765625 C118.99237095 44.42533327 123.12332468 47.34469522 127.25390625 50.3046875 C128.39666016 51.23667969 128.39666016 51.23667969 129.5625 52.1875 C129.5625 52.8475 129.5625 53.5075 129.5625 54.1875 C130.2225 54.1875 130.8825 54.1875 131.5625 54.1875 C132.42875 55.30125 132.42875 55.30125 133.3125 56.4375 C136.38776892 60.19616201 139.70609288 62.55463394 144.3125 64.125 C147.36624093 65.56704433 147.40738759 67.08313541 148.5625 70.1875 C149.3153125 70.92226562 150.068125 71.65703125 150.84375 72.4140625 C153.84807435 75.47881866 155.90353482 78.57067679 158.0625 82.25 C158.4534082 82.90758301 158.84431641 83.56516602 159.24707031 84.24267578 C162.11050712 89.16383589 164.38851074 94.18108437 166.44921875 99.4921875 C167.50362084 102.04495046 168.71786971 104.31535891 170.125 106.6875 C172.65159037 111.05161063 174.1566834 115.55522412 175.66015625 120.35546875 C176.39204504 122.6525223 177.20564678 124.83795101 178.125 127.0625 C181.46861169 135.86917122 182.8305544 145.29900636 183.25390625 154.6640625 C183.57583868 157.2965733 184.34979452 158.86041651 185.5625 161.1875 C186.29211991 164.81494992 186.38906147 168.49688934 186.5625 172.1875 C186.59649902 172.8582959 186.63049805 173.5290918 186.66552734 174.22021484 C187.71150497 198.11841433 184.52816714 223.31168048 177.5625 246.1875 C177.03462891 247.96447266 177.03462891 247.96447266 176.49609375 249.77734375 C174.41326003 256.38523583 171.83697342 262.49881245 168.19921875 268.3984375 C166.91141736 270.59292483 165.74830924 272.76837977 164.6171875 275.04296875 C160.72413453 282.82459374 156.96806067 289.41538313 150.8046875 295.6640625 C148.15008632 298.65164501 146.22982671 301.83090003 144.1875 305.25 C140.70732421 310.94841816 136.96560794 314.80704405 131.578125 318.84765625 C128.04143621 321.59179691 124.86068092 324.60084524 121.625 327.6875 C111.46280219 337.22117915 101.07779158 344.39310602 88.47680664 350.27050781 C87.22860687 350.86842113 85.99222893 351.49187256 84.77124023 352.14355469 C78.49733169 355.47928053 71.86257053 357.60466695 65.125 359.8125 C63.94873047 360.20695312 62.77246094 360.60140625 61.56054688 361.0078125 C42.48414608 367.32040572 23.97788843 368.51222692 4 367.875 C3.27442902 367.85198822 2.54885803 367.82897644 1.80130005 367.80526733 C-10.74503524 367.38610419 -23.11477208 366.70848556 -35.4375 364.1875 C-36.47197266 363.99027344 -36.47197266 363.99027344 -37.52734375 363.7890625 C-49.67291814 361.31798594 -61.00820949 357.76579596 -71.9699707 351.99194336 C-75.32902422 350.22439637 -78.53944172 348.6813622 -82.1875 347.625 C-95.37625038 343.69107063 -106.19893968 333.65063347 -115.88085938 324.31054688 C-118.92668281 321.41082133 -121.93047942 318.76128436 -125.40234375 316.37890625 C-126.40394531 315.65574219 -127.40554687 314.93257813 -128.4375 314.1875 C-128.4375 313.5275 -128.4375 312.8675 -128.4375 312.1875 C-129.118125 312.001875 -129.79875 311.81625 -130.5 311.625 C-138.9702753 307.47997166 -143.73634026 298.68584401 -148.8046875 291.0859375 C-150.78007367 288.1249642 -152.8797127 285.31224224 -155.0625 282.5 C-159.60346501 276.0924364 -162.2681916 268.6337051 -165.2265625 261.40625 C-166.68865372 257.85522037 -168.2924356 254.43717583 -170.05078125 251.0234375 C-172.16470367 246.86567644 -173.75032546 242.79996767 -175 238.3125 C-175.20270508 237.60270996 -175.40541016 236.89291992 -175.61425781 236.16162109 C-179.01909576 223.85571617 -181.96676201 210.97929325 -182.4375 198.1875 C-182.47746094 197.26839844 -182.51742187 196.34929687 -182.55859375 195.40234375 C-182.70051609 189.33307662 -181.97732443 184.05808065 -180.4375 178.1875 C-177.95890092 180.3883849 -176.82539634 182.25122969 -175.75 185.375 C-175.49863281 186.09042969 -175.24726563 186.80585938 -174.98828125 187.54296875 C-174.71564453 188.35701172 -174.71564453 188.35701172 -174.4375 189.1875 C-174.260979 188.09284424 -174.08445801 186.99818848 -173.90258789 185.87036133 C-173.24565381 181.79810575 -172.58748789 177.72605006 -171.92895508 173.65405273 C-171.64444058 171.89369015 -171.36025744 170.13327397 -171.07641602 168.37280273 C-170.66770732 165.83823618 -170.25779628 163.30386653 -169.84765625 160.76953125 C-169.72157486 159.98600784 -169.59549347 159.20248444 -169.46559143 158.3952179 C-168.85721892 154.64314084 -168.21799993 150.90863867 -167.4375 147.1875 C-168.4275 146.5275 -169.4175 145.8675 -170.4375 145.1875 C-171.96252397 138.55131883 -169.39868606 132.1877424 -166.9375 126.125 C-166.5772876 125.21250488 -166.2170752 124.30000977 -165.84594727 123.35986328 C-160.84437277 110.92169432 -154.86182667 99.3605991 -147.4375 88.1875 C-146.55616844 86.81014263 -145.67746641 85.43110069 -144.80078125 84.05078125 C-133.97119379 67.02965723 -121.83065125 52.21641797 -105.4375 40.1875 C-104.65246094 39.60871094 -103.86742188 39.02992187 -103.05859375 38.43359375 C-96.96869569 34.06411633 -90.64978953 30.08962849 -84.20898438 26.25976562 C-82.40455147 25.16755652 -80.63325191 24.03165933 -78.859375 22.890625 C-68.63399701 16.50661857 -58.25778014 13.5656608 -46.56396484 10.91113281 C-43.31785248 10.1598071 -40.09129542 9.34888752 -36.86328125 8.5234375 C-26.33863683 5.85757891 -16.32895235 3.46323297 -5.4375 3.1875 C-9.7275 3.1875 -14.0175 3.1875 -18.4375 3.1875 C-13.99657372 -1.25342628 -5.93529453 -0.00509074 0 0 Z " fill="#FD4F42" transform="translate(191.4375,4.8125)"/>
<path d="M0 0 C144.49918006 0 144.49918006 0 168.54541016 23.46142578 C186.61671667 42.57612428 189.5989594 66.31172181 189.08886719 91.39404297 C188.91704967 96.43245006 188.24688567 101.12228662 187 106 C186.83870605 106.64630371 186.67741211 107.29260742 186.51123047 107.95849609 C183.10273901 121.35182671 178.0898267 132.41871615 169 143 C168.49082031 143.60457031 167.98164063 144.20914063 167.45703125 144.83203125 C160.26180918 152.70236058 149.97349096 158.39944493 140 162 C139.05358643 162.34224609 138.10717285 162.68449219 137.13208008 163.03710938 C122.72047221 167.40346841 107.91301322 166.43182677 93 166.25 C83.43 166.1675 73.86 166.085 64 166 C64 191.74 64 217.48 64 244 C42.88 244 21.76 244 0 244 C0 163.48 0 82.96 0 0 Z " fill="#FEFEFD" transform="translate(116,71)"/>
<path d="M0 0 C7.115625 -0.061875 7.115625 -0.061875 14.375 -0.125 C15.8501709 -0.14320801 17.3253418 -0.16141602 18.84521484 -0.18017578 C32.00053216 -0.23524868 43.49064862 1.07655227 53.45703125 10.3359375 C58.86565599 16.16903659 59.66729619 22.27631733 59.60913086 30.06152344 C59.24065061 37.6371222 56.47421355 41.70787311 51.13671875 46.765625 C42.7129183 53.72074681 32.64462123 55.14508721 21.97265625 55.09765625 C20.23254272 55.09390991 20.23254272 55.09390991 18.45727539 55.09008789 C17.00699951 55.08098389 15.55672363 55.07187988 14.0625 55.0625 C7.1015625 55.0315625 7.1015625 55.0315625 0 55 C0 36.85 0 18.7 0 0 Z " fill="#FD4F42" transform="translate(180,127)"/>
<path d="M0 0 C112 0 112 0 127 2 C127.99 2.99 127.99 2.99 129 4 C128.13934433 3.92935333 127.27868866 3.85870667 126.39195251 3.78591919 C113.471298 2.84352105 100.57862269 2.85438774 87.62890625 2.8671875 C85.21036265 2.86651271 82.79181912 2.86554122 80.37327576 2.86428833 C75.3415359 2.86282383 70.30981394 2.8649283 65.27807617 2.86962891 C58.81491736 2.87537175 52.35179967 2.87201082 45.88864231 2.86605644 C40.91232488 2.86245619 35.93601735 2.86358613 30.95969963 2.86618423 C28.57414686 2.86685262 26.18859319 2.86602816 23.80304146 2.86370468 C20.49049587 2.86118203 17.17801895 2.8650111 13.86547852 2.87060547 C12.37973076 2.86756912 12.37973076 2.86756912 10.8639679 2.86447144 C9.968573 2.86729126 9.0731781 2.87011108 8.15065002 2.87301636 C6.97749914 2.8735819 6.97749914 2.8735819 5.78064823 2.87415886 C3.97525895 2.8062412 3.97525895 2.8062412 3 4 C2.88953798 7.05896632 2.84502365 10.09583675 2.84178162 13.15565491 C2.83684364 14.12839479 2.83190566 15.10113468 2.82681805 16.10335153 C2.81136079 19.38929308 2.80306028 22.67521497 2.79467773 25.96118164 C2.78510567 28.3061287 2.77509599 30.651074 2.76467896 32.99601746 C2.73755105 39.38417312 2.71658433 45.77233623 2.69667697 52.16051793 C2.67707324 58.15352464 2.65290964 64.14651218 2.62875474 70.13950186 C2.58104775 82.01299163 2.53779202 93.88649331 2.49731445 105.76000977 C2.45797531 117.29680305 2.4165529 128.83358574 2.37231445 140.37036133 C2.36959018 141.08100355 2.36686591 141.79164578 2.36405908 142.52382261 C2.35037987 146.08876107 2.33665954 149.65369937 2.32291877 153.21863759 C2.2089052 182.81240362 2.10292289 212.40619288 2 242 C21.47 241.67 40.94 241.34 61 241 C61.65096061 235.79231513 62.13668244 231.11881054 62.20532227 225.94140625 C62.21522186 225.28674881 62.22512146 224.63209137 62.23532104 223.95759583 C62.26653078 221.8259321 62.29153029 219.6942462 62.31640625 217.5625 C62.33701094 216.07177195 62.35800825 214.58104929 62.37937927 213.09033203 C62.43423734 209.1909423 62.48380453 205.29150306 62.53222656 201.39202881 C62.5827086 197.40323548 62.63825444 193.41451292 62.69335938 189.42578125 C62.80049647 181.61724764 62.90203768 173.80865468 63 166 C63.33 166 63.66 166 64 166 C64 191.74 64 217.48 64 244 C42.88 244 21.76 244 0 244 C0 163.48 0 82.96 0 0 Z " fill="#FEE7E0" transform="translate(116,71)"/>
<path d="M0 0 C0.99 0.495 0.99 0.495 2 1 C-2.625 4 -2.625 4 -6 4 C-6 4.66 -6 5.32 -6 6 C-8.54152435 6.47993156 -11.08321222 6.95896727 -13.625 7.4375 C-14.33785156 7.57220703 -15.05070313 7.70691406 -15.78515625 7.84570312 C-16.48769531 7.97783203 -17.19023437 8.10996094 -17.9140625 8.24609375 C-18.5529541 8.36654053 -19.1918457 8.4869873 -19.85009766 8.61108398 C-20.55956543 8.73942627 -21.2690332 8.86776855 -22 9 C-22.91994751 9.17067993 -23.83989502 9.34135986 -24.78771973 9.51721191 C-27.77132573 9.96563151 -30.53409696 10.12073183 -33.54638672 10.11352539 C-34.60703339 10.11344986 -35.66768005 10.11337433 -36.76046753 10.11329651 C-37.88881012 10.10813522 -39.01715271 10.10297394 -40.1796875 10.09765625 C-41.93153854 10.09553383 -41.93153854 10.09553383 -43.71878052 10.09336853 C-47.43754674 10.08778498 -51.15625207 10.07523544 -54.875 10.0625 C-57.4010408 10.05748288 -59.92708254 10.05292034 -62.453125 10.04882812 C-68.63543733 10.03782093 -74.81771431 10.02109913 -81 10 C-80.9830307 10.94769257 -80.9660614 11.89538513 -80.94857788 12.87179565 C-80.79022627 21.78900154 -80.64248761 30.70632802 -80.50522423 39.6238842 C-80.43430687 44.20883932 -80.35960956 48.79366874 -80.27636719 53.37841797 C-80.19621928 57.80030769 -80.12587835 62.22225325 -80.06242752 66.64441299 C-80.03644 68.33421737 -80.00687755 70.02397055 -79.97373581 71.71364975 C-79.92803091 74.07452782 -79.89487135 76.43526581 -79.86474609 78.79638672 C-79.8482048 79.49985229 -79.83166351 80.20331787 -79.81462097 80.92810059 C-79.79969916 82.61979681 -79.89060556 84.31177856 -80 86 C-82 88 -82 88 -84.7081604 88.24050903 C-85.85843719 88.23606781 -87.00871399 88.23162659 -88.19384766 88.22705078 C-89.49504547 88.22689972 -90.79624329 88.22674866 -92.13687134 88.22659302 C-93.56260327 88.21637893 -94.98833365 88.20594692 -96.4140625 88.1953125 C-97.86851813 88.19158295 -99.32297627 88.1887357 -100.7774353 88.18673706 C-104.60798056 88.179096 -108.43837446 88.15944357 -112.26885986 88.1373291 C-116.17661491 88.11688078 -120.08439439 88.10773752 -123.9921875 88.09765625 C-131.66152738 88.07619802 -139.33074249 88.04205651 -147 88 C-147 87.34 -147 86.68 -147 86 C-125.88 86 -104.76 86 -83 86 C-83 60.26 -83 34.52 -83 8 C-54 7.75 -54 7.75 -44.94921875 7.70214844 C-30.32977603 7.55619446 -16.73214826 7.41306685 -3.21875 1.30371094 C-2.1565625 0.87348633 -1.094375 0.44326172 0 0 Z " fill="#E55D57" transform="translate(263,229)"/>
<path d="M0 0 C14.9423216 -0.02334871 29.88464178 -0.04098889 44.82697773 -0.05181217 C51.76478497 -0.05697093 58.70258089 -0.06400565 65.64038086 -0.07543945 C72.33173466 -0.08646186 79.02307424 -0.09227922 85.71443748 -0.09487724 C88.27138645 -0.09672947 90.82833474 -0.10034623 93.3852787 -0.10573006 C96.95779455 -0.11295523 100.53026126 -0.11399031 104.1027832 -0.11352539 C105.16733231 -0.11712067 106.23188141 -0.12071594 107.32868958 -0.12442017 C108.30044128 -0.1230455 109.27219299 -0.12167084 110.27339172 -0.12025452 C111.11867589 -0.12117631 111.96396006 -0.1220981 112.83485889 -0.12304783 C115 0 115 0 118 1 C119.72711929 1.15066953 121.45685506 1.27247943 123.1875 1.375 C129.0660803 1.85838459 133.71536879 3.35768439 139 6 C140.45719747 6.10127241 141.9158651 6.18213326 143.375 6.25 C147.12624348 6.60639833 147.75704258 6.75704258 150.5625 9.5625 C151.036875 10.366875 151.51125 11.17125 152 12 C151.34 12.33 150.68 12.66 150 13 C147.57283392 12.13061166 145.24027382 11.20233032 142.875 10.1875 C141.49878034 9.62032677 140.12118637 9.05647589 138.7421875 8.49609375 C138.1219873 8.24013428 137.50178711 7.9841748 136.86279297 7.72045898 C133.60670772 6.46112641 130.43220422 5.61234416 127 5 C126.08951401 4.83625885 125.17902802 4.6725177 124.24095154 4.5038147 C111.5504419 2.52643282 98.85277909 2.64728272 86.03515625 2.5859375 C83.54552083 2.56719548 81.05589157 2.54761989 78.56626892 2.5272522 C72.06124522 2.47624538 65.55620099 2.4364526 59.05108643 2.39910889 C52.39403189 2.35887053 45.73706544 2.30786935 39.08007812 2.2578125 C26.05344504 2.16142628 13.02676407 2.07653741 0 2 C0 1.34 0 0.68 0 0 Z " fill="#E5655F" transform="translate(116,69)"/>
<path d="M0 0 C7.115625 -0.061875 7.115625 -0.061875 14.375 -0.125 C15.8501709 -0.14320801 17.3253418 -0.16141602 18.84521484 -0.18017578 C27.93561074 -0.21823146 36.63731646 0.09741435 45 4 C45 4.33 45 4.66 45 5 C38.25 5.125 38.25 5.125 36 4 C36 3.34 36 2.68 36 2 C24.78 2 13.56 2 2 2 C2 18.83 2 35.66 2 53 C14.21 52.67 26.42 52.34 39 52 C39 51.34 39 50.68 39 50 C39.99 50 40.98 50 42 50 C42 49.34 42 48.68 42 48 C43.98 48 45.96 48 48 48 C45.77697663 50.5184885 43.94047625 51.60984847 40.75 52.625 C40.02296875 52.86476562 39.2959375 53.10453125 38.546875 53.3515625 C33.04278183 54.75291137 27.63497461 55.12282211 21.97265625 55.09765625 C20.23254272 55.09390991 20.23254272 55.09390991 18.45727539 55.09008789 C17.00699951 55.08098389 15.55672363 55.07187988 14.0625 55.0625 C7.1015625 55.0315625 7.1015625 55.0315625 0 55 C0 36.85 0 18.7 0 0 Z " fill="#DF6C65" transform="translate(180,127)"/>
<path d="M0 0 C0.99 0.495 0.99 0.495 2 1 C-2.625 4 -2.625 4 -6 4 C-6 4.66 -6 5.32 -6 6 C-21.42979648 10.15910539 -37.15289675 9.33241174 -53 9.1875 C-67.355 9.0946875 -67.355 9.0946875 -82 9 C-82 34.41 -82 59.82 -82 86 C-82.33 86 -82.66 86 -83 86 C-83 60.26 -83 34.52 -83 8 C-54 7.75 -54 7.75 -44.94921875 7.70214844 C-30.32977603 7.55619446 -16.73214826 7.41306685 -3.21875 1.30371094 C-2.1565625 0.87348633 -1.094375 0.44326172 0 0 Z " fill="#DC746E" transform="translate(263,229)"/>
<path d="M0 0 C3.43774463 1.14591488 4.17413159 1.95688598 6 5 C6 6.32 6 7.64 6 9 C6.66 9 7.32 9 8 9 C8.67679658 10.725227 9.34102 12.45538939 10 14.1875 C10.556875 15.63189453 10.556875 15.63189453 11.125 17.10546875 C11.97636772 19.92182358 12.17072647 22.08164439 12 25 C12.66 25 13.32 25 14 25 C14.06058594 25.67546875 14.12117188 26.3509375 14.18359375 27.046875 C14.26738281 27.93890625 14.35117187 28.8309375 14.4375 29.75 C14.55931641 31.07257813 14.55931641 31.07257813 14.68359375 32.421875 C14.91761878 34.89597628 14.91761878 34.89597628 15.52514648 36.80981445 C16.10716386 39.49427609 16.0275938 41.87637357 15.9140625 44.62109375 C15.87079834 45.71631348 15.82753418 46.8115332 15.78295898 47.93994141 C15.73083252 49.09413574 15.67870605 50.24833008 15.625 51.4375 C15.57609619 52.60716309 15.52719238 53.77682617 15.47680664 54.98193359 C15.14227585 62.66918355 14.72890558 70.33873713 14 78 C13.34 78 12.68 78 12 78 C12 80.31 12 82.62 12 85 C11.01 85.495 11.01 85.495 10 86 C9.34227572 89.02934491 9.34227572 89.02934491 9 92 C8.34 92 7.68 92 7 92 C6.938125 93.093125 6.87625 94.18625 6.8125 95.3125 C6 99 6 99 3.4375 100.9375 C2.633125 101.288125 1.82875 101.63875 1 102 C2.00929698 99.43971912 3.04390431 96.89979663 4.1484375 94.37890625 C13.18187885 73.63651385 16.69244772 49.24933852 11 27 C10.61521484 25.46085937 10.61521484 25.46085937 10.22265625 23.890625 C7.84592766 15.36296362 4.14781053 7.77131917 0 0 Z " fill="#DE5950" transform="translate(291,103)"/>
<path d="M0 0 C1.9375 0.75 1.9375 0.75 4 2 C6.62927255 9.20553807 6.25143173 21.00019282 3 28 C1.36074622 29.80441789 -0.325179 31.21322008 -2.28515625 32.66015625 C-4.2229242 34.03192305 -4.2229242 34.03192305 -5.8125 36.6875 C-10.13973064 41.26200096 -16.17694705 42.00546373 -22.28540039 42.23852539 C-27.23309051 42.33107073 -32.17753015 42.26244738 -37.125 42.1875 C-38.86196756 42.17242553 -40.59894778 42.15874202 -42.3359375 42.14648438 C-46.55760852 42.11369824 -50.77866213 42.06206914 -55 42 C-55 41.67 -55 41.34 -55 41 C-53.81410278 40.970271 -53.81410278 40.970271 -52.60424805 40.93994141 C-48.96504078 40.84371812 -45.32633289 40.73443858 -41.6875 40.625 C-40.44419922 40.5940625 -39.20089844 40.563125 -37.91992188 40.53125 C-24.20997752 40.09944073 -12.19443646 38.96274472 -2 29 C2.8653954 23.23834755 2.4945581 17.05882392 2.3359375 9.83984375 C2.01988546 6.22729545 1.31192413 3.36377348 0 0 Z " fill="#FEDDD9" transform="translate(236,141)"/>
<path d="M0 0 C-2.32305349 1.27273675 -4.6560195 2.51678638 -7 3.75 C-7.94359375 4.27207031 -7.94359375 4.27207031 -8.90625 4.8046875 C-25.42355446 13.3809802 -42.81103841 12.51156965 -60.91235352 12.2746582 C-64.42584508 12.23315865 -67.9394571 12.21534856 -71.453125 12.1953125 C-78.30237215 12.15288103 -85.15115121 12.08494607 -92 12 C-92 11.67 -92 11.34 -92 11 C-72.53 11 -53.06 11 -33 11 C-33 10.34 -33 9.68 -33 9 C-26.38915203 6.8901549 -19.82092693 5.2610117 -13 4 C-11.33288645 3.66890892 -9.66609717 3.33616828 -8 3 C-8 2.34 -8 1.68 -8 1 C-4.85571151 -0.9090323 -3.47925125 -1.04523725 0 0 Z " fill="#FEE1DB" transform="translate(272,225)"/>
<path d="M0 0 C2.94956528 1.36944102 5.52468811 2.87830409 8 5 C8 5.66 8 6.32 8 7 C8.66 7 9.32 7 10 7 C10.5775 7.7425 11.155 8.485 11.75 9.25 C14.19847502 12.24258058 16.75786093 13.93682059 20 16 C20 16.33 20 16.66 20 17 C17.69 17 15.38 17 13 17 C12.566875 15.824375 12.566875 15.824375 12.125 14.625 C11.15087746 11.90328368 11.15087746 11.90328368 9 10 C6.70500299 9.89983884 4.48231943 10.06791582 2.19140625 10.22265625 C0 10 0 10 -1.78515625 8.68359375 C-3 7 -3 7 -3 4 C-1.68 3.34 -0.36 2.68 1 2 C0.67 1.34 0.34 0.68 0 0 Z " fill="#F84F43" transform="translate(313,52)"/>
<path d="M0 0 C9.47911545 0.33360965 17.3749489 0.68747445 26 5 C27.45719747 5.10127241 28.9158651 5.18213326 30.375 5.25 C34.12624348 5.60639833 34.75704258 5.75704258 37.5625 8.5625 C38.036875 9.366875 38.51125 10.17125 39 11 C38.34 11.33 37.68 11.66 37 12 C34.57283392 11.13061166 32.24027382 10.20233032 29.875 9.1875 C28.49878034 8.62032677 27.12118637 8.05647589 25.7421875 7.49609375 C24.81188721 7.11215454 24.81188721 7.11215454 23.86279297 6.72045898 C15.92466304 3.6502858 7.39014402 3.02691867 -1 2 C-0.67 1.34 -0.34 0.68 0 0 Z " fill="#E26A63" transform="translate(229,70)"/>
<path d="M0 0 C1.12624053 3.37872159 0.59475489 4.67555892 -0.46875 7.95703125 C-1.25119633 10.96599764 -1.3436054 13.98339716 -1.4609375 17.08203125 C-1.72777344 18.03142578 -1.72777344 18.03142578 -2 19 C-3.32279699 19.68733569 -4.65637445 20.3543278 -6 21 C-6.81870185 24.56206661 -6.81870185 24.56206661 -7 28 C-6.360625 28.2475 -5.72125 28.495 -5.0625 28.75 C-3 30 -3 30 -2.0625 31.9375 C-2 34 -2 34 -3.4375 35.75 C-3.953125 36.1625 -4.46875 36.575 -5 37 C-4.9071875 35.824375 -4.9071875 35.824375 -4.8125 34.625 C-4.874375 33.75875 -4.93625 32.8925 -5 32 C-5.99 31.34 -6.98 30.68 -8 30 C-8.83752293 22.46977155 -6.84471827 16.84266917 -4 9.9375 C-3.6184375 8.97650391 -3.236875 8.01550781 -2.84375 7.02539062 C-1.9093677 4.67775511 -0.96138937 2.33667476 0 0 Z " fill="#E85952" transform="translate(29,120)"/>
<path d="M0 0 C4.74757688 4.37276818 6.75482144 7.26882484 7.3359375 13.7421875 C7.36504593 15.11954565 7.37756309 16.49733668 7.375 17.875 C7.37628906 18.58591797 7.37757813 19.29683594 7.37890625 20.02929688 C7.26773613 25.51200501 6.39443968 28.7569504 3 33 C2.67 33 2.34 33 2 33 C2 30.69 2 28.38 2 26 C2.99 25.67 3.98 25.34 5 25 C4.85899143 22.72886197 4.71203245 20.45809275 4.5625 18.1875 C4.48128906 16.92292969 4.40007812 15.65835938 4.31640625 14.35546875 C4.12815453 11.00818107 4.12815453 11.00818107 3 8 C2.34 7.67 1.68 7.34 1 7 C0.59270772 4.67843403 0.25561323 2.3431213 0 0 Z " fill="#E15D54" transform="translate(232,137)"/>
<path d="M0 0 C0.66 0.33 1.32 0.66 2 1 C0.02 1.99 0.02 1.99 -2 3 C-2 3.66 -2 4.32 -2 5 C-8.75 9 -8.75 9 -11 9 C-11.08765625 9.62003906 -11.1753125 10.24007812 -11.265625 10.87890625 C-12 13 -12 13 -13.671875 14.08984375 C-14.70054688 14.50943359 -14.70054688 14.50943359 -15.75 14.9375 C-19.6427167 16.70312508 -22.08122876 18.83799782 -25 22 C-26.31175986 23.02813611 -27.6369893 24.04084432 -29 25 C-29.66 24.67 -30.32 24.34 -31 24 C-21.5341663 15.15382584 -11.41368623 6.24522454 0 0 Z " fill="#E26157" transform="translate(102,34)"/>
<path d="M0 0 C0.66 0.33 1.32 0.66 2 1 C2.19585021 8.62999776 1.42978288 15.99440238 0.5 23.5625 C0.35691406 24.76197266 0.21382813 25.96144531 0.06640625 27.19726562 C-0.28437174 30.13210815 -0.63994859 33.06628323 -1 36 C-1.33 36 -1.66 36 -2 36 C-2.41277905 11.22373113 -2.41277905 11.22373113 0 0 Z " fill="#E55D56" transform="translate(376,188)"/>
<path d="M0 0 C6.78355857 1.32647093 12.92041153 3.32799572 19.3125 5.9375 C20.19228516 6.28490234 21.07207031 6.63230469 21.97851562 6.99023438 C26.08535823 8.64606841 29.51909195 10.21695158 33 13 C31.35 13 29.7 13 28 13 C28 12.34 28 11.68 28 11 C25.03 10.34 22.06 9.68 19 9 C19 8.34 19 7.68 19 7 C16.69 7 14.38 7 12 7 C12 6.34 12 5.68 12 5 C10.7625 4.9175 9.525 4.835 8.25 4.75 C5.01117036 4.36524541 4.12092117 4.09975997 1.5 1.9375 C1.005 1.298125 0.51 0.65875 0 0 Z " fill="#E35E57" transform="translate(247,16)"/>
<path d="M0 0 C-4.91691802 4.91691802 -12.35962735 7.01740858 -18.8125 9.25 C-19.56208984 9.518125 -20.31167969 9.78625 -21.08398438 10.0625 C-24.16873163 11.14312639 -26.70756292 12 -30 12 C-30 11.34 -30 10.68 -30 10 C-13.89320388 4 -13.89320388 4 -8 4 C-8.33 3.01 -8.66 2.02 -9 1 C-5.92677456 0.08941469 -3.19902639 -0.08886184 0 0 Z " fill="#E76155" transform="translate(280,354)"/>
<path d="M0 0 C8.3704272 -0.3333356 16.29906184 -0.02273179 24.5625 1.375 C25.31128418 1.50108643 26.06006836 1.62717285 26.83154297 1.75708008 C31.03150194 2.51371463 34.97659128 3.53809794 39 5 C35.74293795 6.04824986 33.5253255 5.91055917 30.1875 5.25 C23.73383475 4.0736765 17.25617387 3.20987845 10.75 2.375 C9.70094482 2.2399707 8.65188965 2.10494141 7.57104492 1.96582031 C5.0475799 1.64214448 2.52391556 1.32014079 0 1 C0 0.67 0 0.34 0 0 Z " fill="#DF5F54" transform="translate(208,10)"/>
<path d="M0 0 C5.15997451 0.06906932 10.31915352 0.15712862 15.47851562 0.26245117 C17.23200627 0.2956122 18.98560138 0.32367142 20.73925781 0.34643555 C23.26672698 0.3801447 25.79324638 0.43246692 28.3203125 0.48828125 C29.09867462 0.49467117 29.87703674 0.5010611 30.6789856 0.50764465 C35.50069681 0.63656513 38.76006153 1.46724121 43 4 C42.67 4.66 42.34 5.32 42 6 C40.7315625 5.5359375 40.7315625 5.5359375 39.4375 5.0625 C33.61059605 3.26145696 27.82572777 2.86600899 21.75390625 2.68359375 C21.09792953 2.66281265 20.44195282 2.64203156 19.76609802 2.62062073 C17.69832454 2.55594062 15.63043899 2.49662534 13.5625 2.4375 C12.14907758 2.39423693 10.73566593 2.35062035 9.32226562 2.30664062 C5.88162529 2.20034484 2.44086308 2.09885528 -1 2 C-0.67 1.34 -0.34 0.68 0 0 Z " fill="#FDE0DD" transform="translate(181,125)"/>
<path d="M0 0 C2.63787721 4.40731748 2.66530996 9.08383374 3.14453125 14.1015625 C3.42683594 15.05804688 3.70914062 16.01453125 4 17 C6.44651945 18.33724873 6.44651945 18.33724873 9 19 C10.27351308 21.54702616 9.80191925 22.4282945 9.0625 25.125 C8.86785156 25.84945312 8.67320313 26.57390625 8.47265625 27.3203125 C8.31667969 27.87460938 8.16070312 28.42890625 8 29 C5.1621109 26.1621109 4.52277926 22.7632933 3.4375 19 C3.21425049 18.23631104 2.99100098 17.47262207 2.76098633 16.68579102 C1.18581611 11.10925172 0.2763618 5.80359772 0 0 Z " fill="#E55F55" transform="translate(13,224)"/>
<path d="M0 0 C0.66 0.33 1.32 0.66 2 1 C2 3.66666667 2 6.33333333 2 9 C2.71646452 13.61128762 4.40763363 17.53755734 6.2578125 21.79296875 C6.50273438 22.52128906 6.74765625 23.24960937 7 24 C6.67 24.66 6.34 25.32 6 26 C2.29982461 18.88306692 -1.46630017 11.62522996 -4 4 C-3.67 3.34 -3.34 2.68 -3 2 C-2.34 2 -1.68 2 -1 2 C-0.67 1.34 -0.34 0.68 0 0 Z " fill="#EA5C51" transform="translate(29,259)"/>
<path d="M0 0 C0.33 0 0.66 0 1 0 C0.85929844 3.16691607 0.71148731 6.33346378 0.5625 9.5 C0.52318359 10.386875 0.48386719 11.27375 0.44335938 12.1875 C0.18915913 17.50615127 -0.26676337 22.7256256 -1 28 C-2.65 28.33 -4.3 28.66 -6 29 C-6 27.35 -6 25.7 -6 24 C-5.34 24.66 -4.68 25.32 -4 26 C-2.68 17.42 -1.36 8.84 0 0 Z " fill="#E15D57" transform="translate(21,168)"/>
<path d="M0 0 C1.32 0 2.64 0 4 0 C4.33 0.66 4.66 1.32 5 2 C7.02463255 2.65213292 7.02463255 2.65213292 9 3 C9.12375 4.175625 9.12375 4.175625 9.25 5.375 C9.4975 6.24125 9.745 7.1075 10 8 C11.93330603 9.09166275 11.93330603 9.09166275 14 10 C15.25 12.125 15.25 12.125 16 14 C16.99 14 17.98 14 19 14 C19.33 15.32 19.66 16.64 20 18 C19.34 18.33 18.68 18.66 18 19 C17.69449219 18.52691406 17.38898438 18.05382812 17.07421875 17.56640625 C13.20742902 11.97862279 8.65133847 8.03356043 3.29296875 3.8828125 C1 2 1 2 0 0 Z " fill="#E1625C" transform="translate(272,84)"/>
<path d="M0 0 C3.43774463 1.14591488 4.17413159 1.95688598 6 5 C6 6.32 6 7.64 6 9 C6.66 9 7.32 9 8 9 C10.87217429 16.02680781 12.67021516 22.39845954 13 30 C10.96183043 26.94274564 10.27077608 24.70406969 9.3125 21.1875 C7.07487094 13.63231139 3.69403974 6.92113625 0 0 Z " fill="#DB5C56" transform="translate(291,103)"/>
<path d="M0 0 C0.33 0.66 0.66 1.32 1 2 C1.66 2 2.32 2 3 2 C3.33 2.99 3.66 3.98 4 5 C3.38125 5.061875 2.7625 5.12375 2.125 5.1875 C-0.27761141 5.828919 -0.27761141 5.828919 -1.25 8.5625 C-1.4975 9.366875 -1.745 10.17125 -2 11 C-4.31 10.67 -6.62 10.34 -9 10 C-8.06409496 8.8944811 -7.12620142 7.79064547 -6.1875 6.6875 C-5.66542969 6.07261719 -5.14335938 5.45773438 -4.60546875 4.82421875 C-3.12827531 3.14575321 -1.59960869 1.56117966 0 0 Z " fill="#F3554A" transform="translate(70,59)"/>
<path d="M0 0 C0.66 0 1.32 0 2 0 C-1.05091931 15.50584873 -1.05091931 15.50584873 -6 20 C-6 18.35 -6 16.7 -6 15 C-5.34 15 -4.68 15 -4 15 C-3.67 11.37 -3.34 7.74 -3 4 C-2.01 4 -1.02 4 0 4 C0 2.68 0 1.36 0 0 Z " fill="#DE5F5B" transform="translate(367,248)"/>
<path d="M0 0 C3.11990898 2.78533429 3.53816182 4.84345641 4 9 C2.68 9 1.36 9 0 9 C0 12.3 0 15.6 0 19 C-0.66 19 -1.32 19 -2 19 C-2.24991456 12.34949576 -1.73955334 6.43013467 0 0 Z " fill="#DC645D" transform="translate(11,183)"/>
<path d="M0 0 C2.5216376 0.11503269 5.0418119 0.24174777 7.5625 0.375 C8.61920898 0.42140625 8.61920898 0.42140625 9.69726562 0.46875 C14.41295741 0.72952558 18.50385496 1.54658123 23 3 C23 3.33 23 3.66 23 4 C14.86455314 4.28545428 7.02350304 3.18396883 -1 2 C-0.67 1.34 -0.34 0.68 0 0 Z " fill="#E16358" transform="translate(229,70)"/>
<path d="M0 0 C1.98 0 3.96 0 6 0 C2.12207712 4.92908146 -1.76116833 8.5423711 -7 12 C-6.67 10.35 -6.34 8.7 -6 7 C-4.68 7 -3.36 7 -2 7 C-2 5.35 -2 3.7 -2 2 C-1.34 2 -0.68 2 0 2 C0 1.34 0 0.68 0 0 Z " fill="#EA5E56" transform="translate(307,331)"/>
<path d="M0 0 C0.99 0 1.98 0 3 0 C1.55097031 3.31419098 -0.2680214 5.56592592 -2.8125 8.125 C-3.81216797 9.14980469 -3.81216797 9.14980469 -4.83203125 10.1953125 C-7.13135285 12.10934237 -9.18134751 13.04569183 -12 14 C-11.34 12.68 -10.68 11.36 -10 10 C-9.34 10.33 -8.68 10.66 -8 11 C-8 10.01 -8 9.02 -8 8 C-7.01 8 -6.02 8 -5 8 C-5 7.34 -5 6.68 -5 6 C-4.34 6 -3.68 6 -3 6 C-2.690625 5.195625 -2.38125 4.39125 -2.0625 3.5625 C-1 1 -1 1 0 0 Z " fill="#FEDED9" transform="translate(285,209)"/>
<path d="M0 0 C0.33 0 0.66 0 1 0 C1.23952163 5.63624342 0.38279585 10.48573392 -1 15.9375 C-1.19078125 16.71673828 -1.3815625 17.49597656 -1.578125 18.29882812 C-2.0449138 20.20099248 -2.52145136 22.10076009 -3 24 C-3.33 24 -3.66 24 -4 24 C-4.05423638 22.08364783 -4.09289963 20.16685075 -4.125 18.25 C-4.14820313 17.18265625 -4.17140625 16.1153125 -4.1953125 15.015625 C-3.99968675 11.99516341 -3.46144978 10.57902902 -2 8 C-1.5845535 6.59466244 -1.20799564 5.17712415 -0.875 3.75 C-0.58625 2.5125 -0.2975 1.275 0 0 Z " fill="#E15F57" transform="translate(373,224)"/>
<path d="M0 0 C0.66 0 1.32 0 2 0 C0.04643572 5.69789582 -3.01913651 9.62012835 -8 13 C-8.66 12.67 -9.32 12.34 -10 12 C-9.01 10.02 -8.02 8.04 -7 6 C-5.35 6 -3.7 6 -2 6 C-1.34 4.02 -0.68 2.04 0 0 Z " fill="#E75954" transform="translate(333,309)"/>
<path d="M0 0 C0.33 0 0.66 0 1 0 C1.4025937 3.52269485 1.13372795 4.79940808 -0.875 7.8125 C-1.57625 8.534375 -2.2775 9.25625 -3 10 C-3.66 10 -4.32 10 -5 10 C-5 10.66 -5 11.32 -5 12 C-6.65 12.33 -8.3 12.66 -10 13 C-9.61328125 12.56429687 -9.2265625 12.12859375 -8.828125 11.6796875 C-6.2594918 8.74229013 -3.80917028 5.84286844 -1.6875 2.5625 C-1.130625 1.716875 -0.57375 0.87125 0 0 Z " fill="#E65A51" transform="translate(291,205)"/>
<path d="M0 0 C0.95076597 3.04245109 1.05491501 3.84494584 -0.0625 7 C-2.27589379 10.42719038 -4.49637496 11.97568331 -8 14 C-6.6744419 10.37723685 -5.05653045 7.36494652 -2.875 4.1875 C-2.33617187 3.39730469 -1.79734375 2.60710937 -1.2421875 1.79296875 C-0.83226562 1.20128906 -0.42234375 0.60960938 0 0 Z " fill="#E95C53" transform="translate(45,92)"/>
<path d="M0 0 C0 0.99 0 1.98 0 3 C-3.67545514 5.78443571 -7.57257117 6.87143971 -12 8 C-12.33 7.34 -12.66 6.68 -13 6 C-12.01 6 -11.02 6 -10 6 C-10 5.34 -10 4.68 -10 4 C-6.7 2.68 -3.4 1.36 0 0 Z " fill="#FDE9E4" transform="translate(230,175)"/>
<path d="M0 0 C-2.31 0.33 -4.62 0.66 -7 1 C-7 1.66 -7 2.32 -7 3 C-9.06172613 3.33808686 -11.1244203 3.67027361 -13.1875 4 C-14.91033203 4.2784375 -14.91033203 4.2784375 -16.66796875 4.5625 C-19.50415393 4.93489477 -22.14719564 5.08596021 -25 5 C-21.09275214 2.70345272 -16.86654949 1.83926928 -12.5 0.8125 C-11.74074219 0.62236328 -10.98148438 0.43222656 -10.19921875 0.23632812 C-9.46316406 0.06166016 -8.72710937 -0.11300781 -7.96875 -0.29296875 C-7.30294922 -0.4530542 -6.63714844 -0.61313965 -5.95117188 -0.77807617 C-3.72787443 -1.03095122 -2.12326214 -0.65952499 0 0 Z " fill="#E06359" transform="translate(169,12)"/>
<path d="M0 0 C2.87310791 3.32588996 3.97084181 6.55462692 5.1875 10.75 C5.70376953 12.50570312 5.70376953 12.50570312 6.23046875 14.296875 C6.48441406 15.18890625 6.73835938 16.0809375 7 17 C5.078125 16.63671875 5.078125 16.63671875 3 16 C0.88355133 12.29621483 0.91284186 9.18359086 1 5 C0.708776 3.32546201 0.38929201 1.65449105 0 0 Z " fill="#E15E58" transform="translate(361,112)"/>
<path d="M0 0 C1.67004696 3.34009393 1.03063425 5.48371843 0 9 C-2.49099246 10.81306413 -5.11647434 11.94248831 -8 13 C-6.62408154 8.9869045 -4.72281449 6.2333422 -2 3 C-1.34 2.01 -0.68 1.02 0 0 Z " fill="#EB5C54" transform="translate(60,69)"/>
<path d="M0 0 C0 0.66 0 1.32 0 2 C-2.31 2.66 -4.62 3.32 -7 4 C-7 4.66 -7 5.32 -7 6 C-7.66 6 -8.32 6 -9 6 C-9 6.66 -9 7.32 -9 8 C-10.65 8.66 -12.3 9.32 -14 10 C-14.66 9.34 -15.32 8.68 -16 8 C-13.71125827 6.66141476 -11.41930344 5.32898986 -9.125 4 C-8.47402344 3.6184375 -7.82304688 3.236875 -7.15234375 2.84375 C-2.2265625 0 -2.2265625 0 0 0 Z " fill="#E15F53" transform="translate(120,25)"/>
<path d="M0 0 C0 4.09860436 -1.61626555 5.10795632 -4.375 8.0625 C-5.18710937 8.94035156 -5.99921875 9.81820313 -6.8359375 10.72265625 C-8.20663219 12.16510211 -9.59297228 13.59297228 -11 15 C-11 13.35 -11 11.7 -11 10 C-10.34 9.67 -9.68 9.34 -9 9 C-8.67 8.01 -8.34 7.02 -8 6 C-7.01 6 -6.02 6 -5 6 C-5 5.34 -5 4.68 -5 4 C-3.37373596 2.61767557 -1.7074998 1.28062485 0 0 Z " fill="#E3615B" transform="translate(346,294)"/>
<path d="M0 0 C2.739898 2.739898 2.8900714 5.16819116 3.6875 8.9375 C3.95949219 10.18402344 4.23148437 11.43054688 4.51171875 12.71484375 C5 16 5 16 4 19 C1.06167919 14.88004884 0.54682428 11.70203961 0.3125 6.6875 C0.24675781 5.43324219 0.18101562 4.17898437 0.11328125 2.88671875 C0.07589844 1.93410156 0.03851563 0.98148438 0 0 Z " fill="#E15B57" transform="translate(368,131)"/>
<path d="M0 0 C0.33 0 0.66 0 1 0 C1 2.31 1 4.62 1 7 C1.639375 7.2475 2.27875 7.495 2.9375 7.75 C5 9 5 9 5.9375 10.9375 C6 13 6 13 4.5625 14.75 C3.7890625 15.36875 3.7890625 15.36875 3 16 C3.0928125 14.824375 3.0928125 14.824375 3.1875 13.625 C3.125625 12.75875 3.06375 11.8925 3 11 C2.01 10.34 1.02 9.68 0 9 C-0.29296875 6.8359375 -0.29296875 6.8359375 -0.1875 4.375 C-0.16042969 3.55773437 -0.13335938 2.74046875 -0.10546875 1.8984375 C-0.05326172 0.95871094 -0.05326172 0.95871094 0 0 Z " fill="#E15E58" transform="translate(21,141)"/>
<path d="M0 0 C5.2584002 0.67415387 10.02638346 2.24265549 15 4 C15 4.33 15 4.66 15 5 C13.02 5.33 11.04 5.66 9 6 C9 5.01 9 4.02 9 3 C6.03 3 3.06 3 0 3 C0 2.01 0 1.02 0 0 Z " fill="#FDE9E0" transform="translate(247,75)"/>
<path d="M0 0 C-1.92989218 1.19982444 -3.86919228 2.38452818 -5.8125 3.5625 C-7.43091797 4.55443359 -7.43091797 4.55443359 -9.08203125 5.56640625 C-12 7 -12 7 -15 6 C-13.6875 4.5 -13.6875 4.5 -12 3 C-10.33333333 3 -8.66666667 3 -7 3 C-7 2.01 -7 1.02 -7 0 C-2.25 -1.125 -2.25 -1.125 0 0 Z " fill="#E9635A" transform="translate(295,347)"/>
<path d="M0 0 C1.9375 0.75 1.9375 0.75 4 2 C5.32101739 5.50069608 5.09948048 9.0519517 5.0625 12.75 C5.05347656 13.92046875 5.04445312 15.0909375 5.03515625 16.296875 C5.02355469 17.18890625 5.01195312 18.0809375 5 19 C4.67 19 4.34 19 4 19 C3.96261719 18.29875 3.92523438 17.5975 3.88671875 16.875 C3.45727131 10.67748398 2.47354239 5.69990204 0 0 Z " fill="#FEE7E4" transform="translate(236,141)"/>
<path d="M0 0 C1.98 0 3.96 0 6 0 C3.72676563 2.5938187 1.76597542 3.68311469 -1.5 4.75 C-2.2734375 5.01296875 -3.046875 5.2759375 -3.84375 5.546875 C-6 6 -6 6 -9 5 C-9 4.67 -9 4.34 -9 4 C-7.02 4 -5.04 4 -3 4 C-3 3.34 -3 2.68 -3 2 C-2.01 2 -1.02 2 0 2 C0 1.34 0 0.68 0 0 Z " fill="#DF5E58" transform="translate(222,175)"/>
<path d="M0 0 C1.27310312 0.93441535 2.543388 1.87267111 3.8125 2.8125 C4.52019531 3.33457031 5.22789062 3.85664062 5.95703125 4.39453125 C7.78531393 5.83128877 9.39896688 7.31815763 11 9 C8.69 9 6.38 9 4 9 C3.566875 7.88625 3.566875 7.88625 3.125 6.75 C2.17631737 4.43099801 1.13440221 2.23067324 0 0 Z " fill="#E76058" transform="translate(322,60)"/>
<path d="M0 0 C-6.93 3.465 -6.93 3.465 -14 7 C-14.33 6.34 -14.66 5.68 -15 5 C-12.69 4.34 -10.38 3.68 -8 3 C-8 2.34 -8 1.68 -8 1 C-4.59449725 -1.06762667 -4.18836538 -1.04709135 0 0 Z " fill="#FEDCD8" transform="translate(272,225)"/>
<path d="M0 0 C1.08667969 0.01804687 2.17335937 0.03609375 3.29296875 0.0546875 C4.54013672 0.08949219 4.54013672 0.08949219 5.8125 0.125 C4.69921875 1.64453125 4.69921875 1.64453125 2.8125 3.125 C-0.10546875 3.19921875 -0.10546875 3.19921875 -3.375 2.8125 C-4.46167969 2.69261719 -5.54835937 2.57273437 -6.66796875 2.44921875 C-7.49941406 2.34222656 -8.33085937 2.23523438 -9.1875 2.125 C-5.66070901 -0.22619399 -4.15870515 -0.08943452 0 0 Z " fill="#D3594F" transform="translate(182.1875,8.875)"/>
<path d="M0 0 C7 8.44827586 7 8.44827586 7 12 C4.21786577 10.97988412 3.18961687 10.36925391 1.8125 7.6875 C1.04050899 5.13399126 0.45055461 2.62823524 0 0 Z " fill="#FEDEDB" transform="translate(289,101)"/>
<path d="M0 0 C2.73544525 2.38172388 3.92545358 4.70665291 5.25 8.0625 C5.60578125 8.94035156 5.9615625 9.81820312 6.328125 10.72265625 C7 13 7 13 6 15 C2.30912706 10.20186518 1.00332648 5.94074887 0 0 Z " fill="#E4665E" transform="translate(351,92)"/>
<path d="M0 0 C0.66 0.33 1.32 0.66 2 1 C2.625 3.0625 2.625 3.0625 3 5 C1.9275 5.144375 0.855 5.28875 -0.25 5.4375 C-2.91662949 5.83749442 -5.41399729 6.27591924 -8 7 C-5.4837822 4.39391727 -2.94865641 2.10618315 0 0 Z " fill="#E75F58" transform="translate(280,218)"/>
<path d="M0 0 C0.33 0.99 0.66 1.98 1 3 C1.66 3.33 2.32 3.66 3 4 C1.71034824 5.37562854 0.37310707 6.70766393 -1 8 C-1.66 8 -2.32 8 -3 8 C-3 8.66 -3 9.32 -3 10 C-3.66 10 -4.32 10 -5 10 C-3.66511872 6.40608886 -2.03977277 3.24509304 0 0 Z " fill="#E65F5B" transform="translate(51,82)"/>
<path d="M0 0 C1.32 0.33 2.64 0.66 4 1 C4.12375 1.639375 4.2475 2.27875 4.375 2.9375 C4.684375 3.9584375 4.684375 3.9584375 5 5 C5.66 5.33 6.32 5.66 7 6 C6.01 7.485 6.01 7.485 5 9 C4.16094435 7.87926138 3.32892169 6.75325453 2.5 5.625 C2.0359375 4.99851562 1.571875 4.37203125 1.09375 3.7265625 C0 2 0 2 0 0 Z " fill="#EF5E51" transform="translate(40,290)"/>
<path d="M0 0 C2.74277578 3.19990508 4.6302836 6.00499382 6 10 C5.01 10.33 4.02 10.66 3 11 C0 4.5 0 4.5 0 0 Z " fill="#E65F59" transform="translate(344,80)"/>
<path d="M0 0 C4.98012761 1.50912958 8.24259942 4.55661849 12 8 C8.66193504 8 7.64321392 7.41891055 4.875 5.6875 C4.17117188 5.25824219 3.46734375 4.82898437 2.7421875 4.38671875 C1 3 1 3 0 0 Z " fill="#E4625C" transform="translate(290,34)"/>
<path d="M0 0 C0.33 0 0.66 0 1 0 C1 5.61 1 11.22 1 17 C0.01 17.33 -0.98 17.66 -2 18 C-1.84660156 17.48953125 -1.69320312 16.9790625 -1.53515625 16.453125 C-0.83094597 13.2250662 -0.65111796 10.04581999 -0.4375 6.75 C-0.35371094 5.48671875 -0.26992187 4.2234375 -0.18359375 2.921875 C-0.12300781 1.95765625 -0.06242188 0.9934375 0 0 Z " fill="#FECBC5" transform="translate(239,149)"/>
<path d="M0 0 C2.97 0.99 5.94 1.98 9 3 C8.67 4.32 8.34 5.64 8 7 C7.67 6.34 7.34 5.68 7 5 C6.195625 4.690625 5.39125 4.38125 4.5625 4.0625 C2 3 2 3 0 0 Z " fill="#E76052" transform="translate(56,312)"/>
<path d="M0 0 C0.33 0 0.66 0 1 0 C1.17855281 5.17803162 1.07828238 9.15067444 -1 14 C-1.66 14.66 -2.32 15.32 -3 16 C-3 14.35 -3 12.7 -3 11 C-2.34 11 -1.68 11 -1 11 C-0.67 7.37 -0.34 3.74 0 0 Z " fill="#EA5951" transform="translate(364,252)"/>
<path d="M0 0 C3.51414502 1.17138167 4.17375749 1.84558112 6 5 C6.6875 8.75 6.6875 8.75 7 12 C3.95950199 8.35140239 2.03481238 4.2555467 0 0 Z " fill="#DC645F" transform="translate(291,103)"/>
<path d="M0 0 C-1.3125 2 -1.3125 2 -3 4 C-3.99 4 -4.98 4 -6 4 C-6.33 4.66 -6.66 5.32 -7 6 C-7 4 -7 2 -7 0 C-3.98968256 -0.93423645 -3.13349732 -1.04449911 0 0 Z " fill="#ED5046" transform="translate(193,8)"/>
<path d="M0 0 C1.423125 0.2784375 1.423125 0.2784375 2.875 0.5625 C5.89868793 1.28686632 5.89868793 1.28686632 8 0 C8.33 1.98 8.66 3.96 9 6 C5.06326356 4.68775452 2.77280706 3.08089673 0 0 Z " fill="#E7635A" transform="translate(86,338)"/>
<path d="M0 0 C2.5 2.3125 2.5 2.3125 5 5 C5 5.99 5 6.98 5 8 C3.68 7.67 2.36 7.34 1 7 C0.67 4.69 0.34 2.38 0 0 Z " fill="#E2615C" transform="translate(232,137)"/>
<path d="M0 0 C2.95409701 1.37154504 5.44008376 2.98863724 8 5 C7.67 5.66 7.34 6.32 7 7 C5.35 6.67 3.7 6.34 2 6 C1.855625 5.38125 1.71125 4.7625 1.5625 4.125 C1.06847775 1.96741678 1.06847775 1.96741678 0 0 Z " fill="#E6625E" transform="translate(313,52)"/>
<path d="M0 0 C1.32 0.66 2.64 1.32 4 2 C1.03 4.475 1.03 4.475 -2 7 C-2.33 6.34 -2.66 5.68 -3 5 C-2.34 5 -1.68 5 -1 5 C-0.67 3.35 -0.34 1.7 0 0 Z " fill="#EB5F54" transform="translate(316,324)"/>
<path d="M0 0 C0.33 0.66 0.66 1.32 1 2 C0.00390625 3.9453125 0.00390625 3.9453125 -1.4375 6.125 C-1.91058594 6.84945313 -2.38367188 7.57390625 -2.87109375 8.3203125 C-3.24363281 8.87460937 -3.61617188 9.42890625 -4 10 C-5.33332095 7.3333581 -4.67102033 5.83319697 -4 3 C-3.01 3 -2.02 3 -1 3 C-0.67 2.01 -0.34 1.02 0 0 Z " fill="#E6625E" transform="translate(352,284)"/>
<path d="M0 0 C2.97 0.99 5.94 1.98 9 3 C9 3.33 9 3.66 9 4 C2.25 4.125 2.25 4.125 0 3 C0 2.01 0 1.02 0 0 Z " fill="#DE5F59" transform="translate(216,128)"/>
<path d="M0 0 C0 3 0 3 -1 6 C-2.65 6.33 -4.3 6.66 -6 7 C-4.02 4.69 -2.04 2.38 0 0 Z " fill="#DD5E59" transform="translate(287,211)"/>
<path d="M0 0 C2 4 2 4 2 6 C1.01 6.495 1.01 6.495 0 7 C-0.33 7.99 -0.66 8.98 -1 10 C-1.66 9.67 -2.32 9.34 -3 9 C-2.01 6.03 -1.02 3.06 0 0 Z " fill="#DC6A61" transform="translate(301,182)"/>
<path d="M0 0 C0.33 1.32 0.66 2.64 1 4 C0.34 4 -0.32 4 -1 4 C-1 4.66 -1 5.32 -1 6 C-2.32 5.67 -3.64 5.34 -5 5 C-3.35 3.35 -1.7 1.7 0 0 Z " fill="#EA5E56" transform="translate(66,63)"/>
</svg>
